<svg width="53" height="53" viewBox="0 0 53 53" fill="none" xmlns="http://www.w3.org/2000/svg">
<g clip-path="url(#clip0_195_33)">
<path d="M52.9845 0H0.0155273C0.00695183 0 0 0.00695183 0 0.0155273V52.9845C0 52.993 0.00695183 53 0.0155273 53H52.9845C52.993 53 53 52.993 53 52.9845V0.0155273C53 0.00695183 52.993 0 52.9845 0Z" fill="#5865F2"/>
<path d="M39.3425 15.2612C36.9475 14.2049 34.3864 13.4371 31.7091 13C31.3803 13.5604 30.9962 14.3141 30.7313 14.9138C27.8852 14.5103 25.0652 14.5103 22.2714 14.9138C22.0067 14.3141 21.6136 13.5604 21.282 13C18.6017 13.4371 16.0379 14.2077 13.6428 15.2668C8.81192 22.1484 7.50234 28.8593 8.15712 35.4748C11.3612 37.7305 14.4664 39.1006 17.5191 39.9971C18.2729 39.0194 18.9451 37.9799 19.5243 36.8842C18.4212 36.4892 17.3649 36.0016 16.3667 35.4355C16.6316 35.2507 16.8906 35.0573 17.1409 34.8584C23.229 37.5427 29.8436 37.5427 35.8592 34.8584C36.1123 35.0573 36.3713 35.2507 36.6331 35.4355C35.6321 36.0043 34.5727 36.4919 33.4698 36.8871C34.0488 37.9799 34.7182 39.0221 35.4749 40C38.5306 39.1034 41.6386 37.7332 44.8428 35.4748C45.611 27.8058 43.5303 21.1565 39.3425 15.2612ZM20.3536 31.4064C18.526 31.4064 17.0273 29.7979 17.0273 27.8394C17.0273 25.8809 18.494 24.2696 20.3536 24.2696C22.2132 24.2696 23.7119 25.878 23.6799 27.8394C23.683 29.7979 22.2132 31.4064 20.3536 31.4064ZM32.6462 31.4064C30.8186 31.4064 29.3199 29.7979 29.3199 27.8394C29.3199 25.8809 30.7866 24.2696 32.6462 24.2696C34.5058 24.2696 36.0046 25.878 35.9725 27.8394C35.9725 29.7979 34.5058 31.4064 32.6462 31.4064Z" fill="white"/>
</g>
<defs>
<clipPath id="clip0_195_33">
<rect width="53" height="53" rx="26.5" fill="white"/>
</clipPath>
</defs>
</svg>
