<svg width="53" height="53" viewBox="0 0 53 53" fill="none" xmlns="http://www.w3.org/2000/svg">
<g clip-path="url(#clip0_198_152)">
<path d="M52.9845 0H0.0155273C0.00695183 0 0 0.00695183 0 0.0155273V52.9845C0 52.993 0.00695183 53 0.0155273 53H52.9845C52.993 53 53 52.993 53 52.9845V0.0155273C53 0.00695183 52.993 0 52.9845 0Z" fill="#25C9D3"/>
<rect x="11" y="17" width="31" height="21" fill="white"/>
<path fill-rule="evenodd" clip-rule="evenodd" d="M43 18.3299C43 17.4468 42.6527 16.5998 42.0344 15.9753C41.4162 15.3508 40.5776 15 39.7033 15H13.2967C12.4224 15 11.5838 15.3508 10.9656 15.9753C10.3473 16.5998 10 17.4468 10 18.3299V35.6701C10 36.5532 10.3473 37.4002 10.9656 38.0247C11.5838 38.6492 12.4224 39 13.2967 39H39.7033C40.5776 39 41.4162 38.6492 42.0344 38.0247C42.6527 37.4002 43 36.5532 43 35.6701V18.3299ZM40.8022 18.3299V35.6701C40.8022 35.9644 40.6864 36.2468 40.4803 36.4549C40.2743 36.6631 39.9947 36.78 39.7033 36.78H13.2967C13.0053 36.78 12.7257 36.6631 12.5197 36.4549C12.3136 36.2468 12.1978 35.9644 12.1978 35.6701V18.3299C12.1978 18.0356 12.3136 17.7532 12.5197 17.5451C12.7257 17.3369 13.0053 17.22 13.2967 17.22H39.7033C39.9947 17.22 40.2743 17.3369 40.4803 17.5451C40.6864 17.7532 40.8022 18.0356 40.8022 18.3299Z" fill="white"/>
<path fill-rule="evenodd" clip-rule="evenodd" d="M12.5471 19.0892L25.9719 26.8612C26.1303 26.9522 26.3083 27 26.4892 27C26.6701 27 26.8481 26.9522 27.0065 26.8612L40.4335 19.0892C40.5586 19.0202 40.6693 18.9259 40.759 18.8118C40.8487 18.6976 40.9157 18.566 40.956 18.4246C40.9963 18.2831 41.0091 18.1347 40.9937 17.9881C40.9782 17.8414 40.9348 17.6994 40.8661 17.5705C40.7973 17.4415 40.7046 17.3281 40.5932 17.237C40.4819 17.1458 40.3542 17.0787 40.2177 17.0396C40.0811 17.0005 39.9385 16.9902 39.7981 17.0093C39.6577 17.0284 39.5223 17.0764 39.4 17.1507L26.4903 24.6232L13.5817 17.1507C13.4595 17.0799 13.3252 17.0349 13.1863 17.0182C13.0475 17.0015 12.9068 17.0135 12.7724 17.0535C12.638 17.0934 12.5124 17.1606 12.4029 17.2511C12.2934 17.3416 12.2021 17.4537 12.1341 17.581C12.0662 17.7083 12.023 17.8483 12.007 17.9929C11.991 18.1376 12.0025 18.2842 12.0408 18.4242C12.0792 18.5643 12.1436 18.6951 12.2305 18.8092C12.3174 18.9233 12.425 19.0185 12.5471 19.0892Z" fill="#25C9D3"/>
</g>
<defs>
<clipPath id="clip0_198_152">
<rect width="53" height="53" rx="26.5" fill="white"/>
</clipPath>
</defs>
</svg>
