<svg width="53" height="53" viewBox="0 0 53 53" fill="none" xmlns="http://www.w3.org/2000/svg">
<g clip-path="url(#clip0_195_55)">
<path d="M26.5 0C11.8836 0 0 11.8836 0 26.5C0 41.1165 11.8836 53 26.5 53C41.1165 53 53 41.1165 53 26.5C53 11.8836 41.1165 0 26.5 0Z" fill="#FC471E"/>
<path fill-rule="evenodd" clip-rule="evenodd" d="M33.967 10.9694C33.943 11.1206 33.9306 11.2757 33.9306 11.4338C33.9306 13.0302 35.1991 14.3243 36.7639 14.3243C38.3286 14.3243 39.5972 13.0302 39.5972 11.4338C39.5972 9.83747 38.3286 8.54338 36.7639 8.54338C36.0667 8.54338 35.4283 8.80032 34.9345 9.22646L27.5767 7.375L24.9173 18.227C21.3796 18.4645 18.198 19.5574 15.7978 21.2075C15.1163 20.5257 14.1827 20.1052 13.1528 20.1052C11.0664 20.1052 9.375 21.8307 9.375 23.9591C9.375 25.4405 10.1941 26.7265 11.3955 27.3716C11.3087 27.8313 11.2639 28.3004 11.2639 28.7766C11.2639 34.63 18.0293 39.375 26.375 39.375C34.7207 39.375 41.4861 34.63 41.4861 28.7766C41.4861 28.3004 41.4413 27.8313 41.3545 27.3716C42.5558 26.7265 43.375 25.4405 43.375 23.9591C43.375 21.8307 41.6837 20.1052 39.5972 20.1052C38.5674 20.1052 37.6337 20.5257 36.9522 21.2075C34.3372 19.4098 30.7948 18.2733 26.875 18.184L28.9511 9.71181L33.967 10.9694ZM19.7639 29.7402C21.3286 29.7402 22.5972 28.4461 22.5972 26.8496C22.5972 25.2532 21.3286 23.9591 19.7639 23.9591C18.1991 23.9591 16.9306 25.2532 16.9306 26.8496C16.9306 28.4461 18.1991 29.7402 19.7639 29.7402ZM32.9861 29.7402C34.5509 29.7402 35.8194 28.4461 35.8194 26.8496C35.8194 25.2532 34.5509 23.9591 32.9861 23.9591C31.4214 23.9591 30.1528 25.2532 30.1528 26.8496C30.1528 28.4461 31.4214 29.7402 32.9861 29.7402ZM20.2877 32.7924C19.8538 32.4973 19.2675 32.6168 18.9781 33.0595C18.6887 33.5024 18.806 34.1006 19.2399 34.3958C21.2952 35.7934 23.8352 36.4924 26.375 36.4924C28.9148 36.4924 31.4548 35.7934 33.5099 34.3958C33.944 34.1006 34.0613 33.5024 33.7719 33.0595C33.4825 32.6168 32.8962 32.4973 32.4621 32.7924C30.7242 33.9743 28.5497 34.5654 26.375 34.5654C25.0855 34.5654 23.7957 34.3576 22.5972 33.942C21.7748 33.6566 20.9951 33.2734 20.2877 32.7924Z" fill="white"/>
</g>
<defs>
<clipPath id="clip0_195_55">
<rect width="53" height="53" rx="26.5" fill="white"/>
</clipPath>
</defs>
</svg>
