<svg width="53" height="53" viewBox="0 0 53 53" fill="none" xmlns="http://www.w3.org/2000/svg">
<g clip-path="url(#clip0_195_60)">
<path d="M26.5 53C41.1355 53 53 41.1355 53 26.5C53 11.8645 41.1355 0 26.5 0C11.8645 0 0 11.8645 0 26.5C0 41.1355 11.8645 53 26.5 53Z" fill="url(#paint0_linear_195_60)"/>
<path d="M41.0864 14.9652C41.3356 13.3542 39.804 12.0827 38.3716 12.7116L9.84291 25.2372C8.81574 25.6882 8.89088 27.2442 9.95622 27.5834L15.8395 29.457C16.9625 29.8146 18.1783 29.6296 19.1589 28.9522L32.4233 19.7882C32.8233 19.5118 33.2592 20.0806 32.9174 20.4328L23.3695 30.2768C22.4433 31.2318 22.6271 32.85 23.7413 33.5486L34.4313 40.2522C35.6302 41.004 37.1726 40.2488 37.3968 38.7998L41.0864 14.9652Z" fill="white"/>
</g>
<defs>
<linearGradient id="paint0_linear_195_60" x1="26.5" y1="0" x2="26.5" y2="53" gradientUnits="userSpaceOnUse">
<stop stop-color="#40B3E0"/>
</linearGradient>
<clipPath id="clip0_195_60">
<rect width="53" height="53" rx="26.5" fill="white"/>
</clipPath>
</defs>
</svg>
