<svg width="53" height="53" viewBox="0 0 53 53" fill="none" xmlns="http://www.w3.org/2000/svg">
<g clip-path="url(#clip0_198_159)">
<path d="M26.5 53C41.1355 53 53 41.1355 53 26.5C53 11.8645 41.1355 0 26.5 0C11.8645 0 0 11.8645 0 26.5C0 41.1355 11.8645 53 26.5 53Z" fill="#1DA1F2"/>
<path fill-rule="evenodd" clip-rule="evenodd" d="M44 15.3142C42.7501 15.8769 41.4048 16.2559 39.9939 16.427C41.4343 15.5519 42.5404 14.167 43.0605 12.5168C41.7142 13.3275 40.2195 13.9143 38.6318 14.2325C37.3591 12.8591 35.5448 12 33.54 12C29.6881 12 26.5648 15.165 26.5648 19.0684C26.5648 19.6218 26.6271 20.1616 26.7461 20.6795C20.9484 20.3855 15.809 17.5708 12.3685 13.2942C11.7679 14.3381 11.4245 15.5519 11.4245 16.8474C11.4245 19.2992 12.6541 21.4628 14.5274 22.7305C13.3827 22.6938 12.3085 22.3757 11.3667 21.8462V21.9347C11.3667 25.3604 13.7726 28.2163 16.9616 28.8675C16.3768 29.0283 15.7603 29.1156 15.1247 29.1156C14.6747 29.1156 14.2372 29.0708 13.8111 28.9881C14.6985 31.7959 17.2756 33.8401 20.3274 33.8975C17.9407 35.7923 14.9331 36.9234 11.6647 36.9234C11.1003 36.9234 10.5451 36.8901 10 36.8235C13.0871 38.8287 16.7531 40 20.6923 40C33.5219 40 40.5379 29.2293 40.5379 19.8894C40.5379 19.5827 40.5323 19.2774 40.5176 18.9753C41.8819 17.9762 43.065 16.7314 44 15.3142Z" fill="white"/>
</g>
<defs>
<clipPath id="clip0_198_159">
<rect width="53" height="53" rx="26.5" fill="white"/>
</clipPath>
</defs>
</svg>
