<svg width="53" height="53" viewBox="0 0 53 53" fill="none" xmlns="http://www.w3.org/2000/svg">
<g clip-path="url(#clip0_198_146)">
<path d="M52.9845 0H0.0155273C0.00695183 0 0 0.00695183 0 0.0155273V52.9845C0 52.993 0.00695183 53 0.0155273 53H52.9845C52.993 53 53 52.993 53 52.9845V0.0155273C53 0.00695183 52.993 0 52.9845 0Z" fill="#25D366"/>
<path d="M12.7322 40.6817L14.1814 33.9532C12.3188 31.0152 11.5921 27.4986 12.1379 24.063C12.6836 20.6274 14.4642 17.509 17.1456 15.2929C19.827 13.0768 23.2248 11.9152 26.7017 12.0262C30.1786 12.1371 33.4955 13.513 36.0302 15.8955C38.5648 18.2781 40.143 21.5036 40.4686 24.967C40.7942 28.4304 39.8448 31.8936 37.7986 34.7068C35.7524 37.52 32.7501 39.4899 29.3548 40.2469C25.9595 41.0039 22.4046 40.496 19.3572 38.8184L12.7322 40.6817Z" fill="#25D366" stroke="white" stroke-width="3"/>
<path d="M31.8828 28.2598C31.5723 28.0527 31.2617 27.9492 30.9512 28.3633L29.709 30.0195C29.3984 30.2266 29.1914 30.3301 28.7773 30.123C27.2246 29.2949 25.0508 28.3633 23.1875 25.2578C23.084 24.8437 23.291 24.6367 23.498 24.4297L24.4297 22.9805C24.6367 22.7734 24.5332 22.5664 24.4297 22.3594L23.1875 19.3574C22.8769 18.5293 22.5664 18.6328 22.2559 18.6328H21.4277C21.2207 18.6328 20.8066 18.7363 20.3926 19.1504C18.1152 21.4277 19.0469 24.6367 20.7031 26.707C21.0137 27.1211 23.084 30.8476 27.5351 32.8144C30.8476 34.2637 31.5723 34.0566 32.5039 33.8496C33.6426 33.7461 34.7812 32.8144 35.2988 31.8828C35.4023 31.5723 35.9199 30.2266 35.5058 30.0195" fill="white"/>
</g>
<defs>
<clipPath id="clip0_198_146">
<rect width="53" height="53" rx="26.5" fill="white"/>
</clipPath>
</defs>
</svg>
